# xmcd
#
# Track frame offsets:
#	150
#	12923
#	26167
#	38397
#	50512
#	60812
#	72305
#	84097
#	95036
#	105304
#	115440
#	126087
#	136409
#	145362
#	155684
#	165703
#	175349
#	186743
#	198329
#	205597
#
# Disc length: 2862 seconds
#
# Revision: 4
# Processed by: cddbd v1.5.2PL0 Copyright (c) Steve Scherf et al.
# Submitted via: audiograbber 1.83.01
#
DISCID=150b2c14
DTITLE=Chet Atkins - The Essential Chet Atkins [Disc 1]
DYEAR=2007
DGENRE=Country
TTITLE0=Guitar Blues (Pickin' The Blues)
TTITLE1=Bug Dance
TTITLE2=Dizzy Strings
TTITLE3=Centipede Boogie
TTITLE4=Mainstreet Breakdown
TTITLE5=Root, Hog Or Die (by The Carter Sisters and Mother Maybelle)
TTITLE6=Jitterbug Waltz
TTITLE7=The Third Man Theme
TTITLE8=Black Mountain Rag
TTITLE9=Country Gentleman
TTITLE10=City Slicker
TTITLE11=Mister Sandman
TTITLE12=The Poor People Of Paris (Jean's Song)
TTITLE13=Big D (by Eddy Arnold)
TTITLE14=Trambone
TTITLE15=Should We Tell Him (by The Everly Brothers)
TTITLE16=Hidden Charm
TTITLE17=Oh Lonesome Me (by Don Gibson)
TTITLE18=I'm Forever Blowing Bubbles
TTITLE19=Slinkey
EXTD=
EXTT0=
EXTT1=
EXTT2=
EXTT3=
EXTT4=
EXTT5=
EXTT6=
EXTT7=
EXTT8=
EXTT9=
EXTT10=
EXTT11=
EXTT12=
EXTT13=
EXTT14=
EXTT15=
EXTT16=
EXTT17=
EXTT18=
EXTT19=
PLAYORDER=
